<svg width="335" height="427" viewBox="0 0 335 427" fill="none" xmlns="http://www.w3.org/2000/svg">
<path fill-rule="evenodd" clip-rule="evenodd" d="M278.065 398.999C282.559 409.933 287.688 425.973 279.552 426.889C271.988 427.74 262.438 417.754 256.136 409.829C236.233 417.71 212.447 422.43 184.667 422.671C142.631 423.034 109.656 417.54 83.952 408.129C77.6636 416.145 67.7968 426.709 60.0255 425.834C51.8983 424.919 57.0073 408.912 61.4984 397.979C19.8212 374.995 3.9481 339.32 0.385093 305.623C-5.57359 249.269 59.4097 217.01 71.4175 209.665C83.4253 202.319 76.7784 184.884 76.7784 184.884C76.7784 184.884 263.304 182.703 261.731 186.993C255.034 205.259 268.432 211.247 268.432 211.247C292.767 220.772 316.68 249.208 316.68 249.208C349.285 292.77 338.098 362.655 278.065 398.999H278.065Z" fill="#F4C8FB"/>
<path fill-rule="evenodd" clip-rule="evenodd" d="M64.5139 158.828C64.5139 158.828 58.1616 179.949 70.5893 188.31C83.017 196.671 212.239 224.512 268.422 182.233L269.097 159.952" fill="#F4C8FB"/>
<path d="M64.5139 158.828C64.5139 158.828 58.1616 179.949 70.5893 188.31C83.017 196.671 212.239 224.512 268.422 182.233L269.097 159.952" stroke="#F4C8FB" stroke-width="5.62439" stroke-miterlimit="1.5" stroke-linecap="round" stroke-linejoin="round"/>
<path fill-rule="evenodd" clip-rule="evenodd" d="M62.8174 157.229L73.8086 165.604C73.8086 165.604 201.764 139.777 255.85 167C255.85 167 266.903 161.609 271.275 159.478C271.6 159.32 271.81 158.987 271.817 158.62C271.824 158.253 271.626 157.913 271.306 157.743C257.917 151.102 168.045 110.378 62.8174 157.229Z" fill="#F4C8FB"/>
<mask id="mask0_148_231" style="mask-type:luminance" maskUnits="userSpaceOnUse" x="74" y="145" width="206" height="43">
<path d="M177.11 187.537C233.604 187.537 279.402 178.015 279.402 166.269C279.402 154.522 233.604 145 177.11 145C120.615 145 74.8174 154.522 74.8174 166.269C74.8174 178.015 120.615 187.537 177.11 187.537Z" fill="white"/>
</mask>
<g mask="url(#mask0_148_231)">
<path fill-rule="evenodd" clip-rule="evenodd" d="M78.6919 167.335C78.6919 167.335 172.344 139.113 255.593 168.01C255.593 168.01 141.959 197.762 78.6919 167.335Z" fill="#BA7CC4"/>
</g>
<path d="M166.805 180.208C223.299 180.208 269.097 170.686 269.097 158.94C269.097 147.193 223.299 137.671 166.805 137.671C110.31 137.671 64.5122 147.193 64.5122 158.94C64.5122 170.686 110.31 180.208 166.805 180.208Z" stroke="#F4C8FB" stroke-width="5.62439" stroke-miterlimit="1.5" stroke-linecap="round" stroke-linejoin="round"/>
<path d="M75.3154 166.704C75.3154 166.704 155.261 138.842 259.644 166.704" stroke="#F4C8FB" stroke-width="5.62439" stroke-miterlimit="1.5" stroke-linecap="round" stroke-linejoin="round"/>
<path fill-rule="evenodd" clip-rule="evenodd" d="M105.493 2.63111C105.277 1.73242 105.665 0.797271 106.452 0.314505C107.24 -0.168261 108.249 -0.0892629 108.952 0.510312C114.308 5.08274 122.055 11.6956 122.055 11.6956C122.055 11.6956 130.937 6.24949 136.945 2.56561C137.704 2.1004 138.677 2.1767 139.354 2.75467C140.031 3.33263 140.259 4.28129 139.918 5.10368C137.222 11.6159 133.238 21.2429 133.238 21.2429C133.238 21.2429 141.163 28.0077 146.523 32.5842C147.2 33.1622 147.428 34.1101 147.088 34.9332C146.747 35.7556 145.915 36.2654 145.028 36.1958C138.001 35.6442 127.613 34.8292 127.613 34.8292C127.613 34.8292 123.483 44.8079 120.787 51.3195C120.467 52.0926 119.686 52.572 118.851 52.5065C118.017 52.441 117.32 51.8462 117.124 51.0319C115.477 44.18 112.954 33.6787 112.954 33.6787C112.954 33.6787 102.806 32.8826 95.7854 32.3317C94.8631 32.2594 94.0927 31.6011 93.8766 30.7017C93.6605 29.8024 94.0481 28.8659 94.8367 28.3824C100.84 24.7013 109.518 19.3807 109.518 19.3807C109.518 19.3807 107.138 9.4776 105.493 2.63043L105.493 2.63111Z" fill="#F4C8FB"/>
<path fill-rule="evenodd" clip-rule="evenodd" d="M81.0521 64.3545C81.1493 63.4079 81.8252 62.6213 82.7468 62.3843C83.6685 62.1466 84.6408 62.5085 85.1829 63.2904C88.3091 67.7953 92.3954 73.685 92.3954 73.685C92.3954 73.685 99.4748 74.4109 104.922 74.9699C105.878 75.0678 106.672 75.7511 106.911 76.6816C107.151 77.612 106.787 78.5937 105.997 79.1413C101.498 82.2627 95.6512 86.32 95.6512 86.32C95.6512 86.32 94.8437 94.1955 94.2765 99.7247C94.1921 100.544 93.6067 101.226 92.8086 101.432C92.0105 101.638 91.1686 101.324 90.6986 100.647C87.5299 96.0806 83.0169 89.5765 83.0169 89.5765C83.0169 89.5765 74.9497 88.7493 69.4131 88.1808C68.6238 88.0998 67.9688 87.536 67.771 86.7683C67.5731 85.9999 67.8743 85.1904 68.5258 84.738C73.099 81.5646 79.7618 76.9415 79.7618 76.9415C79.7618 76.9415 80.493 69.8108 81.0528 64.3558L81.0521 64.3545Z" fill="#F4C8FB"/>
<path fill-rule="evenodd" clip-rule="evenodd" d="M147.4 100.524C147.714 99.6256 148.554 99.0179 149.505 99.0004C150.457 98.9828 151.319 99.5601 151.665 100.446C153.093 104.095 154.675 108.143 154.675 108.143C154.675 108.143 158.736 109.562 162.42 110.849C163.328 111.166 163.942 112.015 163.959 112.976C163.977 113.936 163.394 114.807 162.499 115.156C158.864 116.578 154.858 118.144 154.858 118.144C154.858 118.144 153.214 122.848 151.86 126.723C151.588 127.502 150.861 128.028 150.037 128.043C149.212 128.058 148.466 127.559 148.166 126.791C146.671 122.967 144.857 118.327 144.857 118.327C144.857 118.327 139.998 116.63 136.088 115.264C135.339 115.003 134.832 114.302 134.818 113.509C134.803 112.716 135.284 111.998 136.023 111.709C139.88 110.201 144.674 108.326 144.674 108.326C144.674 108.326 146.107 104.224 147.399 100.524L147.4 100.524Z" fill="#F4C8FB"/>
<path fill-rule="evenodd" clip-rule="evenodd" d="M199.282 72.5243C199.596 71.6256 200.436 71.0179 201.387 71.0004C202.338 70.9828 203.201 71.5601 203.547 72.446C205.481 77.3911 207.966 83.7488 207.966 83.7488C207.966 83.7488 214.362 85.983 219.366 87.7318C220.274 88.0484 220.887 88.8972 220.905 89.858C220.922 90.8188 220.34 91.6891 219.445 92.0388C214.508 93.9692 208.198 96.4364 208.198 96.4364C208.198 96.4364 205.705 103.575 203.924 108.67C203.652 109.449 202.925 109.975 202.101 109.99C201.276 110.005 200.53 109.506 200.23 108.738C198.264 103.711 195.511 96.6687 195.511 96.6687C195.511 96.6687 188.193 94.1124 183.088 92.3285C182.339 92.0672 181.832 91.367 181.818 90.5737C181.803 89.7803 182.284 89.0626 183.023 88.7736C188.06 86.804 195.279 83.9817 195.279 83.9817C195.279 83.9817 197.53 77.5376 199.282 72.5243Z" fill="#F4C8FB"/>
<path d="M159.108 38L163.78 52.1089" stroke="#F4C8FB" stroke-width="5.62439" stroke-miterlimit="1.5" stroke-linecap="round" stroke-linejoin="round"/>
<path d="M168.257 64.8667L172.292 77.0513" stroke="#F4C8FB" stroke-width="5.62439" stroke-miterlimit="1.5" stroke-linecap="round" stroke-linejoin="round"/>
<path d="M174.011 55.7722L184.382 52.7054" stroke="#F4C8FB" stroke-width="5.62439" stroke-miterlimit="1.5" stroke-linecap="round" stroke-linejoin="round"/>
<path d="M146.817 63.8137L157.188 60.7469" stroke="#F4C8FB" stroke-width="5.62439" stroke-miterlimit="1.5" stroke-linecap="round" stroke-linejoin="round"/>
<path d="M132.181 81.7264C133.486 81.7264 134.544 80.6683 134.544 79.3632C134.544 78.058 133.486 77 132.181 77C130.875 77 129.817 78.058 129.817 79.3632C129.817 80.6683 130.875 81.7264 132.181 81.7264Z" fill="#F4C8FB" stroke="#F4C8FB" stroke-width="5.62439" stroke-miterlimit="1.5" stroke-linecap="round" stroke-linejoin="round"/>
<path d="M75.1806 47.7264C76.4857 47.7264 77.5438 46.6683 77.5438 45.3632C77.5438 44.058 76.4857 43 75.1806 43C73.8754 43 72.8174 44.058 72.8174 45.3632C72.8174 46.6683 73.8754 47.7264 75.1806 47.7264Z" fill="#F4C8FB" stroke="#F4C8FB" stroke-width="5.62439" stroke-miterlimit="1.5" stroke-linecap="round" stroke-linejoin="round"/>
<path d="M213.181 56.7264C214.486 56.7264 215.544 55.6683 215.544 54.3632C215.544 53.058 214.486 52 213.181 52C211.875 52 210.817 53.058 210.817 54.3632C210.817 55.6683 211.875 56.7264 213.181 56.7264Z" fill="#F4C8FB" stroke="#F4C8FB" stroke-width="5.62439" stroke-miterlimit="1.5" stroke-linecap="round" stroke-linejoin="round"/>
</svg>
