<?xml version="1.0" encoding="UTF-8" standalone="no"?><!DOCTYPE svg PUBLIC "-//W3C//DTD SVG 1.1//EN" "http://www.w3.org/Graphics/SVG/1.1/DTD/svg11.dtd"><svg width="100%" height="100%" viewBox="0 0 651 1062" version="1.1" xmlns="http://www.w3.org/2000/svg" xmlns:xlink="http://www.w3.org/1999/xlink" xml:space="preserve" xmlns:serif="http://www.serif.com/" style="fill-rule:evenodd;clip-rule:evenodd;stroke-linecap:round;stroke-linejoin:round;stroke-miterlimit:1.5;"><g><path d="M240.167,4.167l-236,251l100,465l337,337l205,-293l-118,-566l-288,-194Z" style="fill:#fdd9e1;stroke:#522559;stroke-width:8.33px;"/><path d="M149.167,385.167l92,55l82,438l-94,-39l-80,-454Z" style="fill:#d1abb3;fill-opacity:0.47;"/><path d="M461.167,336.167l-54,71l87,449l51,-98l-57.855,-286.739l-26.145,-135.261Z" style="fill:#d1abb3;fill-opacity:0.47;"/><path d="M577.167,444.167l-10,45l17,134l43,68l-26.855,-132.739l-23.145,-114.261Z" style="fill:#d1abb3;fill-opacity:0.38;"/><path d="M244.167,7.167l281,194l-62,131l-16,-19l-203,-306Z" style="fill:#d1abb3;fill-opacity:0.47;"/><path d="M548.167,750.167l80,-57l15,73l-77,107l-18,-123Z" style="fill:#d1abb3;fill-opacity:0.47;"/><path d="M4.167,257.167l145,123l94,62l160,-33l60,-80l65,-129" style="fill:none;stroke:#522559;stroke-width:8.33px;"/><path d="M240.167,6.167l-94,367" style="fill:none;stroke:#522559;stroke-width:8.33px;"/><path d="M244.167,10.167l215.641,321" style="fill:none;stroke:#522559;stroke-width:8.33px;"/><path d="M144.167,377.167l84,461" style="fill:none;stroke:#522559;stroke-width:8.33px;"/><path d="M245.167,444.167l78,429" style="fill:none;stroke:#522559;stroke-width:8.33px;"/><path d="M231.167,840.167l94,38l168,-18l49,-98l40,-140l-17,-127l11,-58" style="fill:none;stroke:#522559;stroke-width:8.33px;"/><path d="M404.167,409.167l88,446" style="fill:none;stroke:#522559;stroke-width:8.33px;"/><path d="M326.167,879.167l118,170" style="fill:none;stroke:#522559;stroke-width:8.33px;"/><path d="M493.167,859.167l-51,191" style="fill:none;stroke:#522559;stroke-width:8.33px;"/><path d="M460.59,338.167l82.577,423" style="fill:none;stroke:#522559;stroke-width:8.33px;"/><path d="M465.167,334.167l99,155" style="fill:none;stroke:#522559;stroke-width:8.33px;"/><path d="M582.167,621.167l44,74l-79,57l19,127" style="fill:none;stroke:#522559;stroke-width:8.33px;stroke-linecap:butt;"/><path d="M127.52,693.981c0,0 -82.161,-263.611 -41.78,-263.432c40.381,0.179 125.658,343.474 107.574,343.562c-18.084,0.088 -69.138,-52.727 -65.794,-80.131Z" style="fill:#fff;fill-opacity:0.56;"/><path d="M371.995,755.746c0,0 -48.46,-238.536 -18.905,-266.053c56.215,-52.339 116.837,302.358 59.813,312.887c-17.784,3.283 -46.602,-19.82 -40.908,-46.833Z" style="fill:#fff;fill-opacity:0.56;"/><path d="M408.52,964.981c0,0 -50.969,-52.695 -13.78,-68.432c89.381,-37.821 46.37,111.364 37.574,95.562c-11.084,-19.912 -27.138,0.273 -23.794,-27.131Z" style="fill:#fff;fill-opacity:0.78;"/><path d="M350.538,765.971c0,0 -40.432,-171.927 -19.382,-172.177c21.051,-0.251 51.771,199.799 42.342,200.022c-9.429,0.222 -24.953,-9.863 -22.96,-27.844Z" style="fill:#fff;fill-opacity:0.56;"/><path d="M78.238,247.569c0,0 78.058,-132.082 90.476,-128.583c34.015,9.586 -41.172,180.123 -51.981,183.935c-33.636,11.864 -48.475,-37.675 -38.494,-55.352Z" style="fill:#fff;"/><ellipse cx="66.667" cy="374.667" rx="21.5" ry="27.5" style="fill:#fff;fill-opacity:0.56;"/></g></svg>